<mxfile host="app.diagrams.net" modified="2021-02-01T11:05:35.191Z" agent="5.0 (Windows NT 10.0; Win64; x64) AppleWebKit/537.36 (KHTML, like Gecko) Chrome/86.0.4240.75 Safari/537.36" etag="pfcUFZZEgxS_kyM2wJxI" version="14.2.7" type="github">
  <diagram id="DwcgkpBsZSUWMjSM1Ywg" name="Page-1">
    <mxGraphModel dx="1422" dy="762" grid="1" gridSize="10" guides="1" tooltips="1" connect="1" arrows="1" fold="1" page="1" pageScale="1" pageWidth="827" pageHeight="1169" math="0" shadow="0">
      <root>
        <mxCell id="0" />
        <mxCell id="1" parent="0" />
        <mxCell id="JCBZ60t_oc3F8IK1baCP-4" style="edgeStyle=orthogonalEdgeStyle;rounded=0;orthogonalLoop=1;jettySize=auto;html=1;exitX=0.5;exitY=0;exitDx=0;exitDy=0;entryX=0;entryY=0.5;entryDx=0;entryDy=0;" parent="1" source="JCBZ60t_oc3F8IK1baCP-1" target="JCBZ60t_oc3F8IK1baCP-2" edge="1">
          <mxGeometry relative="1" as="geometry" />
        </mxCell>
        <mxCell id="JCBZ60t_oc3F8IK1baCP-10" style="edgeStyle=orthogonalEdgeStyle;rounded=0;orthogonalLoop=1;jettySize=auto;html=1;exitX=1;exitY=0.5;exitDx=0;exitDy=0;entryX=0;entryY=0.5;entryDx=0;entryDy=0;" parent="1" source="JCBZ60t_oc3F8IK1baCP-1" target="JCBZ60t_oc3F8IK1baCP-8" edge="1">
          <mxGeometry relative="1" as="geometry" />
        </mxCell>
        <mxCell id="JCBZ60t_oc3F8IK1baCP-14" style="edgeStyle=orthogonalEdgeStyle;rounded=0;orthogonalLoop=1;jettySize=auto;html=1;exitX=0.5;exitY=1;exitDx=0;exitDy=0;entryX=0;entryY=0.5;entryDx=0;entryDy=0;" parent="1" source="JCBZ60t_oc3F8IK1baCP-1" target="JCBZ60t_oc3F8IK1baCP-13" edge="1">
          <mxGeometry relative="1" as="geometry" />
        </mxCell>
        <mxCell id="jL63AR4ucIe5LXbYJcsW-14" style="edgeStyle=orthogonalEdgeStyle;rounded=0;orthogonalLoop=1;jettySize=auto;html=1;exitX=1;exitY=0.5;exitDx=0;exitDy=0;entryX=0;entryY=0.5;entryDx=0;entryDy=0;" edge="1" parent="1" source="JCBZ60t_oc3F8IK1baCP-1" target="jL63AR4ucIe5LXbYJcsW-13">
          <mxGeometry relative="1" as="geometry" />
        </mxCell>
        <mxCell id="JCBZ60t_oc3F8IK1baCP-1" value="project" style="rounded=0;whiteSpace=wrap;html=1;" parent="1" vertex="1">
          <mxGeometry x="79" y="260" width="120" height="60" as="geometry" />
        </mxCell>
        <mxCell id="JCBZ60t_oc3F8IK1baCP-8" value="SubBankAccount_1" style="rounded=0;whiteSpace=wrap;html=1;" parent="1" vertex="1">
          <mxGeometry x="379" y="230" width="140" height="30" as="geometry" />
        </mxCell>
        <mxCell id="JCBZ60t_oc3F8IK1baCP-11" value="SubWallet_1" style="rounded=0;whiteSpace=wrap;html=1;fillColor=#d5e8d4;strokeColor=#82b366;" parent="1" vertex="1">
          <mxGeometry x="379" y="470" width="140" height="30" as="geometry" />
        </mxCell>
        <mxCell id="JCBZ60t_oc3F8IK1baCP-15" style="edgeStyle=orthogonalEdgeStyle;rounded=0;orthogonalLoop=1;jettySize=auto;html=1;exitX=1;exitY=0.5;exitDx=0;exitDy=0;entryX=0;entryY=0.5;entryDx=0;entryDy=0;" parent="1" source="JCBZ60t_oc3F8IK1baCP-13" target="JCBZ60t_oc3F8IK1baCP-11" edge="1">
          <mxGeometry relative="1" as="geometry" />
        </mxCell>
        <mxCell id="JCBZ60t_oc3F8IK1baCP-17" style="edgeStyle=orthogonalEdgeStyle;rounded=0;orthogonalLoop=1;jettySize=auto;html=1;exitX=1;exitY=0.5;exitDx=0;exitDy=0;entryX=0;entryY=0.5;entryDx=0;entryDy=0;" parent="1" source="JCBZ60t_oc3F8IK1baCP-13" target="JCBZ60t_oc3F8IK1baCP-16" edge="1">
          <mxGeometry relative="1" as="geometry" />
        </mxCell>
        <mxCell id="JCBZ60t_oc3F8IK1baCP-13" value="Wallet" style="rounded=0;whiteSpace=wrap;html=1;fillColor=#d5e8d4;strokeColor=#82b366;" parent="1" vertex="1">
          <mxGeometry x="159" y="510" width="140" height="30" as="geometry" />
        </mxCell>
        <mxCell id="JCBZ60t_oc3F8IK1baCP-16" value="SubWallet_2" style="rounded=0;whiteSpace=wrap;html=1;fillColor=#d5e8d4;strokeColor=#82b366;" parent="1" vertex="1">
          <mxGeometry x="379" y="550" width="140" height="30" as="geometry" />
        </mxCell>
        <mxCell id="jL63AR4ucIe5LXbYJcsW-13" value="SubBankAccount_2" style="rounded=0;whiteSpace=wrap;html=1;" vertex="1" parent="1">
          <mxGeometry x="379" y="320" width="140" height="30" as="geometry" />
        </mxCell>
        <mxCell id="jL63AR4ucIe5LXbYJcsW-15" value="" style="group" vertex="1" connectable="0" parent="1">
          <mxGeometry x="240" y="120" width="160" height="70" as="geometry" />
        </mxCell>
        <mxCell id="JCBZ60t_oc3F8IK1baCP-2" value="company" style="rounded=0;whiteSpace=wrap;html=1;" parent="jL63AR4ucIe5LXbYJcsW-15" vertex="1">
          <mxGeometry y="10" width="120" height="60" as="geometry" />
        </mxCell>
        <mxCell id="JCBZ60t_oc3F8IK1baCP-3" value="BankAccount" style="rounded=0;whiteSpace=wrap;html=1;" parent="jL63AR4ucIe5LXbYJcsW-15" vertex="1">
          <mxGeometry x="79" width="81" height="30" as="geometry" />
        </mxCell>
        <mxCell id="jL63AR4ucIe5LXbYJcsW-16" value="一个发放渠道对应一个子账户" style="shape=note;whiteSpace=wrap;html=1;backgroundOutline=1;darkOpacity=0.05;size=10;fillColor=#fff2cc;strokeColor=#d6b656;" vertex="1" parent="1">
          <mxGeometry x="569" y="120" width="180" height="60" as="geometry" />
        </mxCell>
        <mxCell id="jL63AR4ucIe5LXbYJcsW-17" value="" style="endArrow=none;dashed=1;html=1;dashPattern=1 3;strokeWidth=2;entryX=0.5;entryY=1;entryDx=0;entryDy=0;entryPerimeter=0;" edge="1" parent="1" target="jL63AR4ucIe5LXbYJcsW-16">
          <mxGeometry width="50" height="50" relative="1" as="geometry">
            <mxPoint x="499" y="290" as="sourcePoint" />
            <mxPoint x="649" y="200" as="targetPoint" />
          </mxGeometry>
        </mxCell>
        <mxCell id="jL63AR4ucIe5LXbYJcsW-18" value="一个发放渠道对应一个子钱包" style="shape=note;whiteSpace=wrap;html=1;backgroundOutline=1;darkOpacity=0.05;size=10;fillColor=#fff2cc;strokeColor=#d6b656;" vertex="1" parent="1">
          <mxGeometry x="569" y="360" width="180" height="60" as="geometry" />
        </mxCell>
        <mxCell id="jL63AR4ucIe5LXbYJcsW-19" value="" style="endArrow=none;dashed=1;html=1;dashPattern=1 3;strokeWidth=2;entryX=0.5;entryY=1;entryDx=0;entryDy=0;entryPerimeter=0;" edge="1" parent="1" target="jL63AR4ucIe5LXbYJcsW-18">
          <mxGeometry width="50" height="50" relative="1" as="geometry">
            <mxPoint x="489" y="530" as="sourcePoint" />
            <mxPoint x="649" y="430" as="targetPoint" />
          </mxGeometry>
        </mxCell>
        <mxCell id="jL63AR4ucIe5LXbYJcsW-20" value="Wallet" style="rounded=0;whiteSpace=wrap;html=1;fillColor=#d5e8d4;strokeColor=#82b366;" vertex="1" parent="1">
          <mxGeometry x="159" y="510" width="140" height="30" as="geometry" />
        </mxCell>
        <mxCell id="jL63AR4ucIe5LXbYJcsW-23" style="edgeStyle=orthogonalEdgeStyle;rounded=0;orthogonalLoop=1;jettySize=auto;html=1;exitX=0.5;exitY=0;exitDx=0;exitDy=0;entryX=0;entryY=0.5;entryDx=0;entryDy=0;" edge="1" parent="1" source="jL63AR4ucIe5LXbYJcsW-27" target="jL63AR4ucIe5LXbYJcsW-36">
          <mxGeometry relative="1" as="geometry" />
        </mxCell>
        <mxCell id="jL63AR4ucIe5LXbYJcsW-24" style="edgeStyle=orthogonalEdgeStyle;rounded=0;orthogonalLoop=1;jettySize=auto;html=1;exitX=1;exitY=0.5;exitDx=0;exitDy=0;entryX=0;entryY=0.5;entryDx=0;entryDy=0;" edge="1" parent="1" source="jL63AR4ucIe5LXbYJcsW-27" target="jL63AR4ucIe5LXbYJcsW-28">
          <mxGeometry relative="1" as="geometry" />
        </mxCell>
        <mxCell id="jL63AR4ucIe5LXbYJcsW-26" style="edgeStyle=orthogonalEdgeStyle;rounded=0;orthogonalLoop=1;jettySize=auto;html=1;exitX=1;exitY=0.5;exitDx=0;exitDy=0;entryX=0;entryY=0.5;entryDx=0;entryDy=0;" edge="1" parent="1" source="jL63AR4ucIe5LXbYJcsW-27" target="jL63AR4ucIe5LXbYJcsW-34">
          <mxGeometry relative="1" as="geometry" />
        </mxCell>
        <mxCell id="jL63AR4ucIe5LXbYJcsW-46" style="edgeStyle=orthogonalEdgeStyle;rounded=0;orthogonalLoop=1;jettySize=auto;html=1;exitX=0.5;exitY=0;exitDx=0;exitDy=0;entryX=0;entryY=0.5;entryDx=0;entryDy=0;" edge="1" parent="1" source="jL63AR4ucIe5LXbYJcsW-27" target="jL63AR4ucIe5LXbYJcsW-44">
          <mxGeometry relative="1" as="geometry" />
        </mxCell>
        <mxCell id="jL63AR4ucIe5LXbYJcsW-27" value="project_1" style="rounded=0;whiteSpace=wrap;html=1;" vertex="1" parent="1">
          <mxGeometry x="79" y="1420" width="120" height="60" as="geometry" />
        </mxCell>
        <mxCell id="jL63AR4ucIe5LXbYJcsW-28" value="SubBankAccount_1" style="rounded=0;whiteSpace=wrap;html=1;fillColor=#d5e8d4;strokeColor=#82b366;" vertex="1" parent="1">
          <mxGeometry x="379" y="1390" width="140" height="30" as="geometry" />
        </mxCell>
        <mxCell id="jL63AR4ucIe5LXbYJcsW-34" value="SubBankAccount_2" style="rounded=0;whiteSpace=wrap;html=1;fillColor=#d5e8d4;strokeColor=#82b366;" vertex="1" parent="1">
          <mxGeometry x="379" y="1480" width="140" height="30" as="geometry" />
        </mxCell>
        <mxCell id="jL63AR4ucIe5LXbYJcsW-35" value="" style="group" vertex="1" connectable="0" parent="1">
          <mxGeometry x="240" y="1150" width="160" height="70" as="geometry" />
        </mxCell>
        <mxCell id="jL63AR4ucIe5LXbYJcsW-36" value="company&lt;br&gt;（项目主体）" style="rounded=0;whiteSpace=wrap;html=1;" vertex="1" parent="jL63AR4ucIe5LXbYJcsW-35">
          <mxGeometry y="10" width="120" height="60" as="geometry" />
        </mxCell>
        <mxCell id="jL63AR4ucIe5LXbYJcsW-37" value="BankAccount" style="rounded=0;whiteSpace=wrap;html=1;fillColor=#d5e8d4;strokeColor=#82b366;" vertex="1" parent="jL63AR4ucIe5LXbYJcsW-35">
          <mxGeometry x="79" width="81" height="30" as="geometry" />
        </mxCell>
        <mxCell id="jL63AR4ucIe5LXbYJcsW-38" value="一个发放渠道对应一个子账户" style="shape=note;whiteSpace=wrap;html=1;backgroundOutline=1;darkOpacity=0.05;size=10;fillColor=#fff2cc;strokeColor=#d6b656;" vertex="1" parent="1">
          <mxGeometry x="569" y="1280" width="180" height="60" as="geometry" />
        </mxCell>
        <mxCell id="jL63AR4ucIe5LXbYJcsW-39" value="" style="endArrow=none;dashed=1;html=1;dashPattern=1 3;strokeWidth=2;entryX=0.5;entryY=1;entryDx=0;entryDy=0;entryPerimeter=0;" edge="1" parent="1" target="jL63AR4ucIe5LXbYJcsW-38">
          <mxGeometry width="50" height="50" relative="1" as="geometry">
            <mxPoint x="499" y="1450" as="sourcePoint" />
            <mxPoint x="649" y="1360" as="targetPoint" />
          </mxGeometry>
        </mxCell>
        <mxCell id="jL63AR4ucIe5LXbYJcsW-43" value="" style="group" vertex="1" connectable="0" parent="1">
          <mxGeometry x="240" y="1270" width="160" height="70" as="geometry" />
        </mxCell>
        <mxCell id="jL63AR4ucIe5LXbYJcsW-44" value="company&lt;br&gt;（园区主体）" style="rounded=0;whiteSpace=wrap;html=1;" vertex="1" parent="jL63AR4ucIe5LXbYJcsW-43">
          <mxGeometry y="10" width="120" height="60" as="geometry" />
        </mxCell>
        <mxCell id="jL63AR4ucIe5LXbYJcsW-45" value="BankAccount" style="rounded=0;whiteSpace=wrap;html=1;fillColor=#f8cecc;strokeColor=#b85450;" vertex="1" parent="jL63AR4ucIe5LXbYJcsW-43">
          <mxGeometry x="79" width="81" height="30" as="geometry" />
        </mxCell>
        <mxCell id="jL63AR4ucIe5LXbYJcsW-47" value="父子关系" style="endArrow=none;dashed=1;html=1;dashPattern=1 3;strokeWidth=2;entryX=1;entryY=0.5;entryDx=0;entryDy=0;" edge="1" parent="1" source="jL63AR4ucIe5LXbYJcsW-28" target="jL63AR4ucIe5LXbYJcsW-37">
          <mxGeometry x="0.1402" y="-28" width="50" height="50" relative="1" as="geometry">
            <mxPoint x="430" y="1220" as="sourcePoint" />
            <mxPoint x="480" y="1170" as="targetPoint" />
            <Array as="points">
              <mxPoint x="510" y="1230" />
            </Array>
            <mxPoint x="5" y="4" as="offset" />
          </mxGeometry>
        </mxCell>
        <mxCell id="jL63AR4ucIe5LXbYJcsW-50" style="edgeStyle=orthogonalEdgeStyle;rounded=0;orthogonalLoop=1;jettySize=auto;html=1;exitX=0.5;exitY=1;exitDx=0;exitDy=0;" edge="1" parent="1" source="jL63AR4ucIe5LXbYJcsW-49" target="jL63AR4ucIe5LXbYJcsW-36">
          <mxGeometry relative="1" as="geometry" />
        </mxCell>
        <mxCell id="jL63AR4ucIe5LXbYJcsW-53" style="edgeStyle=orthogonalEdgeStyle;rounded=0;orthogonalLoop=1;jettySize=auto;html=1;exitX=1;exitY=0.5;exitDx=0;exitDy=0;entryX=0;entryY=0.5;entryDx=0;entryDy=0;" edge="1" parent="1" source="jL63AR4ucIe5LXbYJcsW-49" target="jL63AR4ucIe5LXbYJcsW-51">
          <mxGeometry relative="1" as="geometry" />
        </mxCell>
        <mxCell id="jL63AR4ucIe5LXbYJcsW-54" style="edgeStyle=orthogonalEdgeStyle;rounded=0;orthogonalLoop=1;jettySize=auto;html=1;exitX=1;exitY=0.5;exitDx=0;exitDy=0;entryX=0;entryY=0.5;entryDx=0;entryDy=0;" edge="1" parent="1" source="jL63AR4ucIe5LXbYJcsW-49" target="jL63AR4ucIe5LXbYJcsW-52">
          <mxGeometry relative="1" as="geometry" />
        </mxCell>
        <mxCell id="jL63AR4ucIe5LXbYJcsW-49" value="project_2" style="rounded=0;whiteSpace=wrap;html=1;" vertex="1" parent="1">
          <mxGeometry x="240" y="970" width="120" height="60" as="geometry" />
        </mxCell>
        <mxCell id="jL63AR4ucIe5LXbYJcsW-51" value="SubBankAccount_3" style="rounded=0;whiteSpace=wrap;html=1;fillColor=#d5e8d4;strokeColor=#82b366;" vertex="1" parent="1">
          <mxGeometry x="480" y="930" width="140" height="30" as="geometry" />
        </mxCell>
        <mxCell id="jL63AR4ucIe5LXbYJcsW-52" value="SubBankAccount_4" style="rounded=0;whiteSpace=wrap;html=1;fillColor=#d5e8d4;strokeColor=#82b366;" vertex="1" parent="1">
          <mxGeometry x="480" y="1030" width="140" height="30" as="geometry" />
        </mxCell>
        <mxCell id="jL63AR4ucIe5LXbYJcsW-55" value="" style="endArrow=none;dashed=1;html=1;dashPattern=1 3;strokeWidth=2;entryX=0.5;entryY=1;entryDx=0;entryDy=0;exitX=1;exitY=0.5;exitDx=0;exitDy=0;" edge="1" parent="1" source="jL63AR4ucIe5LXbYJcsW-37" target="jL63AR4ucIe5LXbYJcsW-52">
          <mxGeometry width="50" height="50" relative="1" as="geometry">
            <mxPoint x="460" y="1150" as="sourcePoint" />
            <mxPoint x="510" y="1100" as="targetPoint" />
            <Array as="points">
              <mxPoint x="520" y="1190" />
            </Array>
          </mxGeometry>
        </mxCell>
        <mxCell id="jL63AR4ucIe5LXbYJcsW-56" style="edgeStyle=orthogonalEdgeStyle;rounded=0;orthogonalLoop=1;jettySize=auto;html=1;exitX=0.5;exitY=0;exitDx=0;exitDy=0;entryX=0;entryY=0.5;entryDx=0;entryDy=0;" edge="1" parent="1" source="jL63AR4ucIe5LXbYJcsW-60" target="jL63AR4ucIe5LXbYJcsW-64">
          <mxGeometry relative="1" as="geometry" />
        </mxCell>
        <mxCell id="jL63AR4ucIe5LXbYJcsW-57" style="edgeStyle=orthogonalEdgeStyle;rounded=0;orthogonalLoop=1;jettySize=auto;html=1;exitX=1;exitY=0.5;exitDx=0;exitDy=0;entryX=0;entryY=0.5;entryDx=0;entryDy=0;" edge="1" parent="1" source="jL63AR4ucIe5LXbYJcsW-60" target="jL63AR4ucIe5LXbYJcsW-61">
          <mxGeometry relative="1" as="geometry" />
        </mxCell>
        <mxCell id="jL63AR4ucIe5LXbYJcsW-58" style="edgeStyle=orthogonalEdgeStyle;rounded=0;orthogonalLoop=1;jettySize=auto;html=1;exitX=1;exitY=0.5;exitDx=0;exitDy=0;entryX=0;entryY=0.5;entryDx=0;entryDy=0;" edge="1" parent="1" source="jL63AR4ucIe5LXbYJcsW-60" target="jL63AR4ucIe5LXbYJcsW-62">
          <mxGeometry relative="1" as="geometry" />
        </mxCell>
        <mxCell id="jL63AR4ucIe5LXbYJcsW-59" style="edgeStyle=orthogonalEdgeStyle;rounded=0;orthogonalLoop=1;jettySize=auto;html=1;exitX=0.5;exitY=0;exitDx=0;exitDy=0;entryX=0;entryY=0.5;entryDx=0;entryDy=0;" edge="1" parent="1" source="jL63AR4ucIe5LXbYJcsW-60" target="jL63AR4ucIe5LXbYJcsW-69">
          <mxGeometry relative="1" as="geometry" />
        </mxCell>
        <mxCell id="jL63AR4ucIe5LXbYJcsW-60" value="project_1" style="rounded=0;whiteSpace=wrap;html=1;" vertex="1" parent="1">
          <mxGeometry x="980" y="1520" width="120" height="60" as="geometry" />
        </mxCell>
        <mxCell id="jL63AR4ucIe5LXbYJcsW-61" value="SubWallet_1" style="rounded=0;whiteSpace=wrap;html=1;fillColor=#d5e8d4;strokeColor=#82b366;" vertex="1" parent="1">
          <mxGeometry x="1280" y="1490" width="140" height="30" as="geometry" />
        </mxCell>
        <mxCell id="jL63AR4ucIe5LXbYJcsW-62" value="SubWallet_2" style="rounded=0;whiteSpace=wrap;html=1;fillColor=#d5e8d4;strokeColor=#82b366;" vertex="1" parent="1">
          <mxGeometry x="1280" y="1580" width="140" height="30" as="geometry" />
        </mxCell>
        <mxCell id="jL63AR4ucIe5LXbYJcsW-63" value="" style="group" vertex="1" connectable="0" parent="1">
          <mxGeometry x="1145" y="1200" width="160" height="70" as="geometry" />
        </mxCell>
        <mxCell id="jL63AR4ucIe5LXbYJcsW-64" value="company&lt;br&gt;（项目主体）" style="rounded=0;whiteSpace=wrap;html=1;" vertex="1" parent="jL63AR4ucIe5LXbYJcsW-63">
          <mxGeometry y="10" width="120" height="60" as="geometry" />
        </mxCell>
        <mxCell id="jL63AR4ucIe5LXbYJcsW-66" value="一个发放渠道对应一个子钱包" style="shape=note;whiteSpace=wrap;html=1;backgroundOutline=1;darkOpacity=0.05;size=10;fillColor=#fff2cc;strokeColor=#d6b656;" vertex="1" parent="1">
          <mxGeometry x="1690" y="1420" width="180" height="60" as="geometry" />
        </mxCell>
        <mxCell id="jL63AR4ucIe5LXbYJcsW-67" value="" style="endArrow=none;dashed=1;html=1;dashPattern=1 3;strokeWidth=2;entryX=0.5;entryY=1;entryDx=0;entryDy=0;entryPerimeter=0;" edge="1" parent="1" target="jL63AR4ucIe5LXbYJcsW-66">
          <mxGeometry width="50" height="50" relative="1" as="geometry">
            <mxPoint x="1400" y="1550" as="sourcePoint" />
            <mxPoint x="1550" y="1460" as="targetPoint" />
          </mxGeometry>
        </mxCell>
        <mxCell id="jL63AR4ucIe5LXbYJcsW-72" style="edgeStyle=orthogonalEdgeStyle;rounded=0;orthogonalLoop=1;jettySize=auto;html=1;exitX=0.5;exitY=1;exitDx=0;exitDy=0;" edge="1" parent="1" source="jL63AR4ucIe5LXbYJcsW-75" target="jL63AR4ucIe5LXbYJcsW-64">
          <mxGeometry relative="1" as="geometry" />
        </mxCell>
        <mxCell id="jL63AR4ucIe5LXbYJcsW-73" style="edgeStyle=orthogonalEdgeStyle;rounded=0;orthogonalLoop=1;jettySize=auto;html=1;exitX=1;exitY=0.5;exitDx=0;exitDy=0;entryX=0;entryY=0.5;entryDx=0;entryDy=0;" edge="1" parent="1" source="jL63AR4ucIe5LXbYJcsW-75" target="jL63AR4ucIe5LXbYJcsW-76">
          <mxGeometry relative="1" as="geometry" />
        </mxCell>
        <mxCell id="jL63AR4ucIe5LXbYJcsW-74" style="edgeStyle=orthogonalEdgeStyle;rounded=0;orthogonalLoop=1;jettySize=auto;html=1;exitX=1;exitY=0.5;exitDx=0;exitDy=0;entryX=0;entryY=0.5;entryDx=0;entryDy=0;" edge="1" parent="1" source="jL63AR4ucIe5LXbYJcsW-75" target="jL63AR4ucIe5LXbYJcsW-77">
          <mxGeometry relative="1" as="geometry" />
        </mxCell>
        <mxCell id="jL63AR4ucIe5LXbYJcsW-75" value="project_2" style="rounded=0;whiteSpace=wrap;html=1;" vertex="1" parent="1">
          <mxGeometry x="1145" y="1020" width="120" height="60" as="geometry" />
        </mxCell>
        <mxCell id="jL63AR4ucIe5LXbYJcsW-76" value="SubWallet_3" style="rounded=0;whiteSpace=wrap;html=1;fillColor=#d5e8d4;strokeColor=#82b366;" vertex="1" parent="1">
          <mxGeometry x="1385" y="980" width="140" height="30" as="geometry" />
        </mxCell>
        <mxCell id="jL63AR4ucIe5LXbYJcsW-77" value="SubWallet_4" style="rounded=0;whiteSpace=wrap;html=1;fillColor=#d5e8d4;strokeColor=#82b366;" vertex="1" parent="1">
          <mxGeometry x="1385" y="1080" width="140" height="30" as="geometry" />
        </mxCell>
        <mxCell id="jL63AR4ucIe5LXbYJcsW-82" style="edgeStyle=orthogonalEdgeStyle;rounded=0;orthogonalLoop=1;jettySize=auto;html=1;exitX=1;exitY=0.5;exitDx=0;exitDy=0;entryX=0;entryY=0.5;entryDx=0;entryDy=0;" edge="1" parent="1" source="jL63AR4ucIe5LXbYJcsW-69" target="jL63AR4ucIe5LXbYJcsW-81">
          <mxGeometry relative="1" as="geometry" />
        </mxCell>
        <mxCell id="jL63AR4ucIe5LXbYJcsW-69" value="company&lt;br&gt;（园区主体）" style="rounded=0;whiteSpace=wrap;html=1;" vertex="1" parent="1">
          <mxGeometry x="1145" y="1330" width="120" height="60" as="geometry" />
        </mxCell>
        <mxCell id="jL63AR4ucIe5LXbYJcsW-79" value="SubWallet" style="rounded=0;whiteSpace=wrap;html=1;fillColor=#d5e8d4;strokeColor=#82b366;" vertex="1" parent="1">
          <mxGeometry x="1400" y="1225" width="140" height="30" as="geometry" />
        </mxCell>
        <mxCell id="jL63AR4ucIe5LXbYJcsW-80" style="edgeStyle=orthogonalEdgeStyle;rounded=0;orthogonalLoop=1;jettySize=auto;html=1;exitX=1;exitY=0.5;exitDx=0;exitDy=0;entryX=0;entryY=0.5;entryDx=0;entryDy=0;" edge="1" parent="1" source="jL63AR4ucIe5LXbYJcsW-64" target="jL63AR4ucIe5LXbYJcsW-79">
          <mxGeometry relative="1" as="geometry" />
        </mxCell>
        <mxCell id="jL63AR4ucIe5LXbYJcsW-81" value="SubWallet" style="rounded=0;whiteSpace=wrap;html=1;fillColor=#d5e8d4;strokeColor=#82b366;" vertex="1" parent="1">
          <mxGeometry x="1400" y="1345" width="140" height="30" as="geometry" />
        </mxCell>
        <mxCell id="jL63AR4ucIe5LXbYJcsW-85" value="" style="endArrow=none;dashed=1;html=1;exitX=0.5;exitY=0;exitDx=0;exitDy=0;exitPerimeter=0;" edge="1" parent="1" source="jL63AR4ucIe5LXbYJcsW-66">
          <mxGeometry width="50" height="50" relative="1" as="geometry">
            <mxPoint x="1700" y="1310" as="sourcePoint" />
            <mxPoint x="1460" y="1040" as="targetPoint" />
          </mxGeometry>
        </mxCell>
      </root>
    </mxGraphModel>
  </diagram>
</mxfile>
